<?xml version="1.0" encoding="UTF-8"?>
<!-- Textio Brandmark - Copyright © 2024 Textio, Inc. All rights reserved. -->
<svg id="uuid-52616368-656c-4c69-6674-4a656e73656e" data-name="Textio" xmlns="http://www.w3.org/2000/svg" xmlns:xlink="http://www.w3.org/1999/xlink" viewBox="0 0 1992.41218185 543.70507254">
  <defs>
    <style>
      .uuid-5cae428d-9e3c-49f0-9cb1-589f18463031 {
        fill: #3f3f3f;
      }

      .uuid-5cae428d-9e3c-49f0-9cb1-589f18463031, .uuid-3578c58f-4993-4fd5-a1ea-c559b0271623, .uuid-66fd6657-0618-465c-9186-133b0ba6b483, .uuid-01b96137-a882-4c3b-934a-3be557c76999, .uuid-b46ee783-ffc9-432e-809a-004c26ba64a5, .uuid-557ebc63-a325-48e8-81ac-611121717206 {
        stroke-width: 0px;
      }

      .uuid-3578c58f-4993-4fd5-a1ea-c559b0271623 {
        fill: url(#uuid-b6bd3c80-794c-4bac-b285-f46fa0fc5c16);
      }

      .uuid-66fd6657-0618-465c-9186-133b0ba6b483 {
        fill: url(#uuid-ddff8dfa-2a53-415b-b905-0c2a4fd3d505);
      }

      .uuid-01b96137-a882-4c3b-934a-3be557c76999 {
        fill: url(#uuid-01bfe91f-30c6-4dc5-953b-ecebb19b452f);
      }

      .uuid-b46ee783-ffc9-432e-809a-004c26ba64a5 {
        fill: url(#uuid-0e75bc93-bdd1-48da-b67c-ddb612755e04);
      }

      .uuid-557ebc63-a325-48e8-81ac-611121717206 {
        fill: url(#uuid-ba52ed2a-1ed5-4a08-8305-df346e32d401);
      }
    </style>
    <linearGradient id="uuid-ba52ed2a-1ed5-4a08-8305-df346e32d401" x1="97.57994319" y1="537.61881683" x2="528.9966984" y2="364.38042403" gradientUnits="userSpaceOnUse">
      <stop offset=".00923859" stop-color="#55c55e"/>
      <stop offset=".55894511" stop-color="#85c902"/>
      <stop offset="1" stop-color="#90d215"/>
    </linearGradient>
    <linearGradient id="uuid-b6bd3c80-794c-4bac-b285-f46fa0fc5c16" x1="119.69302083" y1="472.41626919" x2="616.52612888" y2="216.02801565" gradientUnits="userSpaceOnUse">
      <stop offset="0" stop-color="#55c55e"/>
      <stop offset=".96963357" stop-color="#00bdff"/>
    </linearGradient>
    <linearGradient id="uuid-01bfe91f-30c6-4dc5-953b-ecebb19b452f" x1="43.45880284" y1="401.01666316" x2="609.05202307" y2="154.45008972" gradientUnits="userSpaceOnUse">
      <stop offset=".01395089" stop-color="#b30bdb"/>
      <stop offset=".05429114" stop-color="#a914dc"/>
      <stop offset=".39283657" stop-color="#615beb"/>
      <stop offset=".67427624" stop-color="#2c90f5"/>
      <stop offset=".88457188" stop-color="#0cb0fc"/>
      <stop offset="1" stop-color="#00bdff"/>
    </linearGradient>
    <linearGradient id="uuid-0e75bc93-bdd1-48da-b67c-ddb612755e04" x1="37.26551828" y1="334.65229078" x2="545.66277382" y2="70.72192672" gradientUnits="userSpaceOnUse">
      <stop offset=".01395089" stop-color="#b30bdb"/>
      <stop offset=".2279678" stop-color="#c51ac2"/>
      <stop offset=".54159542" stop-color="#dc2ea4"/>
      <stop offset=".81004094" stop-color="#ea3991"/>
      <stop offset="1" stop-color="#f03e8b"/>
    </linearGradient>
    <linearGradient id="uuid-ddff8dfa-2a53-415b-b905-0c2a4fd3d505" x1="111.41665381" y1="195.12353286" x2="560.48358898" y2="11.9887782" gradientUnits="userSpaceOnUse">
      <stop offset=".01395089" stop-color="#ff8500"/>
      <stop offset=".14196857" stop-color="#fe8008"/>
      <stop offset=".3489418" stop-color="#fb7420"/>
      <stop offset=".60901627" stop-color="#f76047"/>
      <stop offset=".90930744" stop-color="#f1457c"/>
      <stop offset=".9816591" stop-color="#f03e8b"/>
    </linearGradient>
  </defs>
  <g>
    <path class="uuid-5cae428d-9e3c-49f0-9cb1-589f18463031" d="M1870.66057918,431.24783181c-73.64008226,0-122.24020985-52.03899146-122.24020985-129.11793759,0-75.1105572,44.67265654-119.78786714,122.24020985-119.78786714,77.07429273,0,121.75160267,44.67730994,121.75160267,119.78786714,0,77.07894613-49.09338817,129.11793759-121.75160267,129.11793759ZM1870.66057918,238.80175018c-37.31097501,0-50.07525594,25.52856185-50.07525594,63.32814404,0,37.31097501,16.2031448,71.18773955,50.07525594,71.18773955,33.38350396,0,49.58199535-33.87676454,49.58199535-71.18773955,0-37.79958219-12.75962752-63.32814404-49.58199535-63.32814404Z"/>
    <path class="uuid-5cae428d-9e3c-49f0-9cb1-589f18463031" d="M1685.08757189,152.88599418c-31.91302901,0-43.20218159-13.25288811-43.20218159-39.27471054,0-25.52856185,11.28915258-39.27471054,43.20218159-39.27471054,30.43324726,0,42.70892101,13.74614869,42.70892101,39.27471054,0,26.02182243-12.27567374,39.27471054-42.70892101,39.27471054ZM1648.26520406,426.33849299v-203.73523421c0-37.31097501,8.34354929-37.31097501,69.21935062-37.31097501v241.04620922h-69.21935062Z"/>
    <path class="uuid-5cae428d-9e3c-49f0-9cb1-589f18463031" d="M1603.09487029,373.43066654c-8.84728599,2.33864383-17.46505386,3.32116752-26.47426544,3.32116752-32.40163619,0-46.67730994-18.6508341-46.67730994-53.50946641l2-81.49502437h90.82509482c0-39.76797112,0-54.49133417-24.05808691-54.49133417h-66.76700791v-54.49598757c-60.87580133,0-69.21935062,0-69.21935062,37.31097501v17.18501256l-17.37197061.00000614c-1.86179032.00000066-3.53635914,1.0891163-4.30558936,2.78456553-3.64103635,8.0251557-7.55771848,15.95737392-11.69821832,23.79062503-2.58218717,4.88513979-.37492969,10.93850574,4.70084344,13.12226592l28.67493485,12.33687544v96.22304082c0,72.16960731,33.87211114,95.73443364,82.47689213,95.73443364,36.40043441,0,73.78659588-12.31925253,73.63900977-46.34711534-.03470121-8.00080733-8.0097709-13.5147221-15.74497589-11.47003976Z"/>
    <path class="uuid-5cae428d-9e3c-49f0-9cb1-589f18463031" d="M1349.265417,426.33849299l-53.02085923-72.16495391c-15.22127703,21.10783021-27.98090456,43.20218159-40.74983888,72.16495391h-79.03802826c25.03995467-49.58664875,49.09338817-84.44062766,84.92923484-120.28112772l-74.7623637-103.69775003c-4.54451937-6.30339131-.0402826-15.10359594,7.73052163-15.10359594h66.05462771l53.50946641,73.14682168c15.70988421-24.0534335,28.47416514-49.58199535,38.29284277-73.14682168h75.1152106c-19.63735527,44.17939595-47.12965264,85.9111026-78.54942107,121.75160267l74.4727489,102.18772111c4.58995937,6.29810897.09134572,15.14314992-7.70185027,15.14314992h-66.28229145Z"/>
    <path class="uuid-5cae428d-9e3c-49f0-9cb1-589f18463031" d="M1160.97771133,384.11817916c0,34.8586323-50.56386312,47.12965264-92.78417694,47.12965264-72.65821449,0-123.22673101-44.67730994-123.22673101-132.05888748,0-66.76700791,47.12965264-116.84691725,120.28112772-116.84691725,72.16495391,0,111.93292503,46.15243828,111.93292503,115.3717889,0,25.52856185-21.10783021,31.41976843-39.27471054,31.41976843h-116.84226385c8.83680987,32.40163619,33.38350396,48.60478099,76.58568555,48.60478099,16.60390515,0,31.88212642-2.12310662,47.00171022-6.17512039,8.24356105-2.20925545,16.32643382,4.02045054,16.32643382,12.55491648v.00001767ZM1017.13641069,286.42001h76.09707837c8.34354929,0,11.28915258-6.86842094,11.28915258-11.78241316,0-26.50577621-15.21662363-44.17939595-40.2565783-44.17939595-31.41976843,0-45.16591712,21.10783021-47.12965264,55.96180911Z"/>
    <path class="uuid-5cae428d-9e3c-49f0-9cb1-589f18463031" d="M805.04832038,426.33849299v-250.86488686h-100.15051187v-65.29653297h248.40789075c26.02182243,0,26.02182243,22.09435138,26.02182243,65.29653297h-100.64377245v250.86488686h-73.63542886Z"/>
  </g>
  <g>
    <path class="uuid-557ebc63-a325-48e8-81ac-611121717206" d="M72.96438599,508.33051538c3.66607081,17.77276867,18.28771547,32.10511151,37.77850846,34.71884178,29.14785887,3.24024969,57.65831516-6.25100567,83.98462445-12.65452753,48.62676663-13.34660573,110.31444652-35.88221644,156.91246001-54.58343549,61.70431077-25.08963318,133.45940703-60.47076233,159.22006566-77.66510185,25.76065864-17.19433952,30.54479964-28.63930145,24.85204227-40.324435-5.69275737-11.68513355-26.7965131-11.45522437-42.25612016-5.67815155-50.80948862,19.1694891-134.24550462,51.71515923-162.10112323,62.01970872-1.69899143.50942631-1.88750094-.84637879-1.88750094-.84637879-42.808881,14.36882942-219.71208725,80.25179188-255.46017782,93.55544576l-1.04277871,1.45803396Z"/>
    <path class="uuid-3578c58f-4993-4fd5-a1ea-c559b0271623" d="M331.35484346,414.16341445c36.08446799-21.09039961,80.0879508-46.75959928,115.56667052-68.72912525,42.28439513-26.0658807,84.3687926-52.59218765,125.08629967-81.88968505,18.68467249-14.42069383,37.28301506-25.82127926,51.46989868-46.96779332,10.00046296-15.36633481,10.11639682-34.76686846,1.56923219-49.94661141h-2.33712518l-352.67151808,177.22696004-9.86332007,6.94398848c-9.94808452,6.18769706-19.50859709,11.92934085-28.27252286,17.45229752-46.22679483,29.52123578-92.91113825,56.94321565-136.84731252,91.11043999-4.73951264,3.82225724-11.59986367,10.26103048-15.32787741,16.05304874-7.16699299,10.5870024-8.96252042,22.24992242-6.7628824,32.91356193l258.39045747-94.16708167Z"/>
    <path class="uuid-01b96137-a882-4c3b-934a-3be557c76999" d="M625.04694452,166.63019943c-3.83013299-6.80230659-9.38664571-12.71771206-16.5479508-16.96778901-13.87177941-8.70493366-31.59243446-8.74737921-44.40523351-6.25963866-60.40792313,13.44300747-113.59578723,40.03837836-169.85268001,62.31581438-15.69334074,6.57690112-31.08768857,13.59693343-46.73498668,20.19973353l-2.31434283-.70056292L8.65409436,399.86144648l-.41574173,2.06904596c5.62151667,8.62004258,13.81429609,14.99496393,23.34943582,18.53521009,15.00701787,5.99921007,33.2125593,3.31075246,46.66419977-.06330861,26.44429352-6.64452622,50.46127744-16.3703112,74.93724877-25.70976978,35.85137721-14.20702727,71.44947121-29.0002843,106.9857442-43.8914762l364.87196333-184.17094852Z"/>
    <path class="uuid-b46ee783-ffc9-432e-809a-004c26ba64a5" d="M347.50609352,225.91831966c61.09136833-37.62833474,121.72826556-75.85400244,180.47577655-118.22472748,16.40987908-13.10200429,36.36072374-26.43853819,43.01100529-48.70014706,2.26435756-7.84090009,2.39475359-15.50305487.77328953-22.68732267l-2.68289012-2.21027815L229.90171549,182.32181243l-.25138183,2.15553023c-37.80674991,23.29900675-75.35903571,47.05220416-112.40464348,72.07061516-28.22125105,19.42926805-56.36336635,38.5434319-83.05082248,61.56690231-17.61705914,15.37463945-37.89307983,36.44345658-33.61687109,64.07550592.83020607,5.91863548,3.0474462,11.94590277,6.18266115,17.33576748-.01151066-.01654657.99856381,1.68350406,1.47769487,2.4043589l339.26774089-176.01217278Z"/>
    <path class="uuid-66fd6657-0618-465c-9186-133b0ba6b483" d="M571.76616489,36.30612245c-4.86440454-21.5528582-25.29959256-37.97063604-49.81406824-36.17119561-44.82537246,4.39994829-101.88119707,32.52471606-142.44187145,48.35042934-101.1930553,42.422523-185.37185817,74.15995223-281.69734478,126.11401789-25.11481274,14.3027096-14.56615318,46.02673787,13.75345003,40.22803007,36.64439441-7.50328788,95.66343441-22.94887611,118.08400322-30.35006147L571.76616489,36.30612245Z"/>
  </g>
</svg>