<?xml version="1.0" encoding="utf-8"?>
<!-- Generator: Adobe Illustrator 16.0.0, SVG Export Plug-In . SVG Version: 6.00 Build 0)  -->
<!DOCTYPE svg PUBLIC "-//W3C//DTD SVG 1.1//EN" "http://www.w3.org/Graphics/SVG/1.1/DTD/svg11.dtd">
<svg version="1.1" id="Layer_1" xmlns="http://www.w3.org/2000/svg" xmlns:xlink="http://www.w3.org/1999/xlink" x="0px" y="0px"
	 width="2000px" height="2000px" viewBox="0 0 2000 2000" enable-background="new 0 0 2000 2000" xml:space="preserve">
<linearGradient id="SVGID_1_" gradientUnits="userSpaceOnUse" x1="584.7612" y1="585.4028" x2="1414.7417" y2="1415.3833">
	<stop  offset="0" style="stop-color:#FF805F"/>
	<stop  offset="0.5" style="stop-color:#B74BDD"/>
	<stop  offset="1" style="stop-color:#0379FF"/>
</linearGradient>
<path fill-rule="evenodd" clip-rule="evenodd" fill="url(#SVGID_1_)" d="M1308.477,1291.921c0.05,0.07,0.1,0.129,0.14,0.209
	l0.22,0.231C1308.717,1292.221,1308.596,1292.07,1308.477,1291.921z M1150.876,1099.732l-0.01,0.009l-120.85,108.239l0.059,0.069
	h-0.059v169.921c0,84.239,68.279,152.52,152.521,152.52c83.72,0,151.689-67.449,152.51-150.98c14.37,4.48,29.65,6.901,45.49,6.901
	c84.229,0,152.521-68.28,152.521-152.522c0-30.028-8.681-58.02-23.661-81.62c78.42-6.319,140.089-71.959,140.089-152.018
	c0-79.991-61.579-145.599-139.909-152.011c14.87-23.54,23.481-51.439,23.481-81.35c0-84.229-68.291-152.519-152.521-152.519
	c-15.84,0-31.12,2.419-45.49,6.9c-0.67-83.65-68.702-151.261-152.51-151.261c-84.241,0-152.521,68.29-152.521,152.521v169.778
	l0.16,0.141l120.689,108.099l0.01,0.012V1099.732z M1275.058,622.531c0,17.778-5.021,34.389-13.722,48.489l-26.4,27.761
	l-32.021,33.67h-112.898v-109.92c0-51.091,41.419-92.52,92.521-92.52C1233.628,530.011,1275.058,571.44,1275.058,622.531z
	 M1210.878,1092.77V907.732h286.09c51.089,0,92.519,41.428,92.519,92.519c0,51.1-41.43,92.519-92.519,92.519H1210.878z
	 M1090.016,1268.05h112.898l32.042,33.681l26.369,27.73c8.711,14.099,13.732,30.719,13.732,48.51
	c0,51.101-41.43,92.519-92.521,92.519c-51.103,0-92.521-41.418-92.521-92.519V1268.05z M1181.596,1152.77h243.451
	c28.609,15.731,48.009,46.159,48.009,81.119c0,51.102-41.428,92.521-92.519,92.521c-23.831,0-45.55-9.008-61.951-23.809l-0.04-0.041
	c-3.479-3.129-6.73-6.54-9.688-10.181l-0.021-0.018l-0.22-0.231l-34.01-35.758l-44.41-46.702l-0.229-0.24l-1.312-1.38h-108.788
	L1181.596,1152.77z M1120.105,792.45h108.55l1.279-1.339l0.262-0.279l44.398-46.691l34.052-35.809l2.411-2.53l0.019-0.021
	c1.552-1.76,3.169-3.47,4.85-5.09v-0.01c16.67-16.279,39.471-26.309,64.611-26.309c51.091,0,92.519,41.428,92.519,92.519
	c0,34.762-19.169,65.04-47.51,80.84h-243.72L1120.105,792.45z M1030.177,792.45h-0.16v-0.141L1030.177,792.45z M1030.177,792.45
	h-0.16v-0.141L1030.177,792.45z M1315.926,700.69l-4.85,5.09C1312.628,704.021,1314.245,702.311,1315.926,700.69z M1318.546,1302.56
	c-3.479-3.129-6.73-6.54-9.688-10.181L1318.546,1302.56z M1150.876,900.561v7.171h-0.01v-7.184L1150.876,900.561z M1150.876,1092.77
	v6.963l-0.01,0.009v-6.972H1150.876z M690.665,1292.361l0.22-0.231c0.041-0.08,0.089-0.139,0.141-0.209
	C690.904,1292.07,690.785,1292.221,690.665,1292.361z M848.625,900.561l0.01-0.012L969.324,792.45l0.162-0.141V622.531
	c0-84.231-68.281-152.521-152.521-152.521c-83.81,0-151.842,67.61-152.512,151.261c-14.37-4.48-29.65-6.9-45.488-6.9
	c-84.231,0-152.521,68.29-152.521,152.519c0,29.911,8.611,57.81,23.481,81.35c-78.331,6.412-139.911,72.02-139.911,152.011
	c0,80.059,61.669,145.699,140.088,152.018c-14.979,23.601-23.659,51.592-23.659,81.62c0,84.242,68.29,152.522,152.521,152.522
	c15.838,0,31.119-2.421,45.488-6.901c0.823,83.531,68.792,150.98,152.512,150.98c84.239,0,152.521-68.28,152.521-152.52V1208.05
	h-0.061l0.061-0.069l-120.851-108.239l-0.01-0.009V900.561z M816.965,530.011c51.1,0,92.519,41.429,92.519,92.52v109.92H796.584
	l-32.021-33.67l-26.4-27.761c-8.699-14.101-13.717-30.711-13.717-48.489C724.446,571.44,765.876,530.011,816.965,530.011z
	 M502.535,1092.77c-51.089,0-92.521-41.419-92.521-92.519c0-51.091,41.431-92.519,92.521-92.519h286.091v185.038H502.535z
	 M909.484,1377.971c0,51.101-41.419,92.519-92.519,92.519c-51.089,0-92.519-41.418-92.519-92.519
	c0-17.791,5.018-34.411,13.729-48.51l26.37-27.73l32.04-33.681h112.899V1377.971z M879.636,1208.05H770.845l-1.31,1.38l-0.229,0.24
	l-44.411,46.702l-34.01,35.758l-0.22,0.231l-0.019,0.018c-2.96,3.641-6.211,7.052-9.691,10.181l-0.04,0.041
	c-16.4,14.801-38.12,23.809-61.95,23.809c-51.091,0-92.521-41.419-92.521-92.521c0-34.96,19.401-65.388,48.011-81.119h243.45
	L879.636,1208.05z M817.675,847.73h-243.72c-28.338-15.8-47.51-46.079-47.51-80.84c0-51.091,41.43-92.519,92.521-92.519
	c25.14,0,47.94,10.03,64.61,26.309v0.01c1.681,1.62,3.299,3.33,4.849,5.09l0.021,0.021l2.409,2.53l34.051,35.809l44.401,46.691
	l0.259,0.279l1.281,1.339h108.55L817.675,847.73z M969.486,792.309v0.141h-0.162L969.486,792.309z M969.486,792.309v0.141h-0.162
	L969.486,792.309z M688.424,705.78l-4.849-5.09C685.256,702.311,686.875,704.021,688.424,705.78z M690.646,1292.379
	c-2.96,3.641-6.211,7.052-9.691,10.181L690.646,1292.379z M848.635,900.548v7.184h-0.01v-7.171L848.635,900.548z M848.635,1092.77
	v6.972l-0.01-0.009v-6.963H848.635z"/>
</svg>
