<svg width="880" height="440" viewBox="0 0 880 440" fill="none" xmlns="http://www.w3.org/2000/svg">
<rect width="880" height="440" fill="white"/>
<path d="M511.91 134.521V87H368.09V134.521H511.91Z" fill="#E5176B"/>
<path d="M416.07 277.082H463.929V229.562H416.07V277.082Z" fill="#934AF4"/>
<path d="M461.97 182.041H463.929V159.129V87H416.07V182.041H416.805H461.97Z" fill="#E5176B"/>
<path d="M463.929 87V134.521H368.09V87H463.929Z" fill="#934AF4"/>
<path d="M381.064 352C372.863 352 367.723 346.181 367.723 338.059C367.723 329.937 372.741 324.118 381.064 324.118C389.388 324.118 394.406 329.937 394.406 338.059C394.406 346.181 389.265 352 381.064 352ZM381.064 328.725C376.046 328.725 373.231 332.604 373.231 338.059C373.231 343.514 375.923 347.393 381.064 347.393C386.205 347.393 388.898 343.514 388.898 338.059C388.898 332.604 386.083 328.725 381.064 328.725Z" fill="#231F20"/>
<path d="M419.131 340.726H411.665L411.298 341.09V351.151L410.931 351.515H406.279L405.912 351.151V324.845L406.279 324.482H419.254C424.762 324.482 428.679 327.149 428.679 332.604C428.679 338.059 424.639 340.726 419.131 340.726ZM419.131 329.088H411.665L411.298 329.452V335.634L411.665 335.998H419.131C421.457 335.998 423.048 335.271 423.048 332.483C423.048 329.694 421.457 329.088 419.131 329.088Z" fill="#231F20"/>
<path d="M476.047 324.482H471.396L471.028 324.845V334.543L470.539 335.028H459.4V340.362H470.539L471.028 340.726V351.151L471.396 351.515H476.047L476.414 351.151V324.845L476.047 324.482Z" fill="#231F20"/>
<path d="M512.523 351.515H508.973L508.606 351.151L506.648 346.181L505.913 345.817H496.121L495.387 346.181L493.429 351.151L493.061 351.515H489.512L489.145 351.151V347.272L498.08 324.845L498.447 324.482H503.465L503.833 324.845L512.768 347.272V351.151L512.523 351.515ZM501.14 331.392H500.773L497.223 340.726L497.59 341.09H504.2L504.567 340.726L501.14 331.392Z" fill="#231F20"/>
<path d="M542.632 329.088H534.799L534.432 329.573V351.151L533.942 351.515H529.291L528.923 351.151V329.573L528.556 329.088H520.723L520.355 328.725V324.845L520.723 324.482H542.632L543 324.845V328.725L542.632 329.088Z" fill="#231F20"/>
<path d="M359.277 329.088H351.443L351.076 329.573V351.151L350.709 351.515H345.935L345.568 351.151V329.573L345.201 329.088H337.367L337 328.725V324.845L337.367 324.482H359.277L359.644 324.845V328.725L359.277 329.088Z" fill="#231F20"/>
<path d="M459.401 324.845V335.028H454.26L453.893 334.543V324.845L454.26 324.482H459.033L459.401 324.845Z" fill="#231F20"/>
<path d="M459.401 340.362V351.151L459.033 351.515H454.26L453.893 351.151V340.726L454.26 340.362H459.401Z" fill="#231F20"/>
</svg>
